<?xml version="1.0" ?><svg width="24px" height="24px" viewBox="0 0 24 24" style="enable-background:new 0 0 24 24;" version="1.1" xml:space="preserve" xmlns="http://www.w3.org/2000/svg" xmlns:xlink="http://www.w3.org/1999/xlink"><style type="text/css">
	.st0{opacity:0.2;fill:none;stroke:#000000;stroke-width:5.000000e-02;stroke-miterlimit:10;}
</style><g id="Layer_1"/><g id="Layer_2"><g><path d="M17.2,11.5C17.7,11,18,10.4,18,9.7c0-0.7-0.3-1.3-0.8-1.7l-4.9-4.3c-0.5-0.4-1.2-0.5-1.8-0.3c-0.6,0.3-1,0.9-1,1.6v1.1    H9.2c-4,0-7.2,3.3-7.2,7.5v4.4c0,0.8,0.5,1.5,1.3,1.7c0.1,0,0.3,0.1,0.4,0.1c0.6,0,1.2-0.3,1.5-0.9l1.6-3c0.6-1,1-1.7,1.5-2.1    c0.3-0.2,0.6-0.4,1-0.5v1c0,0.7,0.4,1.3,1,1.6c0.6,0.3,1.3,0.2,1.8-0.3L17.2,11.5C17.2,11.5,17.2,11.5,17.2,11.5z M15.9,10    l-4.4,3.9v-1.6c0-0.6-0.4-1-1-1c-1.3,0-2.4,0.4-3.3,1.1c-0.7,0.6-1.4,1.4-2,2.7L4,17.1v-3.4c0-3,2.3-5.5,5.2-5.5h1.3    c0.6,0,1-0.4,1-1V5.7l4.5,3.9C16,9.6,16,9.7,16,9.8C16,9.8,16,9.9,15.9,10z"/><path d="M21.1,8.1l-4.5-4.3c-0.4-0.4-1-0.4-1.4,0c-0.4,0.4-0.4,1,0,1.4l4.5,4.3c0,0,0.1,0.1,0.1,0.2c0,0.1,0,0.2-0.1,0.2l-4.5,4.3    c-0.4,0.4-0.4,1,0,1.4c0.2,0.2,0.5,0.3,0.7,0.3c0.2,0,0.5-0.1,0.7-0.3l4.5-4.3c0.4-0.4,0.7-1,0.7-1.7C21.8,9.1,21.6,8.5,21.1,8.1z    "/></g></g></svg>