<?xml version="1.0" ?><svg width="24px" height="24px" viewBox="0 0 24 24" style="enable-background:new 0 0 24 24;" version="1.1" xml:space="preserve" xmlns="http://www.w3.org/2000/svg" xmlns:xlink="http://www.w3.org/1999/xlink"><style type="text/css">
	.st0{display:none;}
	.st1{display:inline;}
	.st2{opacity:0.2;fill:none;stroke:#000000;stroke-width:5.000000e-02;stroke-miterlimit:10;}
</style><g class="st0" id="grid_system"/><g id="_icons"><path d="M5,20h2h10.4c1.4,0,2.6-0.9,2.9-2.3l1-4c0.2-0.9,0-1.8-0.5-2.6c-0.6-0.7-1.4-1.2-2.4-1.2h-2.8l0.7-1.5   C16.8,7.7,17,6.7,17,5.8c0-0.9-0.5-1.7-1.3-2l-0.4-0.2c-0.9-0.5-2.1-0.2-2.8,0.6l-5.1,6C7.3,10,7.2,10,7,10H5c-1.7,0-3,1.3-3,3v4   C2,18.7,3.3,20,5,20z M8,12.5l6.1-7.1c0.1-0.1,0.2-0.1,0.3-0.1l0.4,0.2c0.1,0,0.2,0.1,0.2,0.3c0,0.6-0.2,1.3-0.4,1.8l-1.5,2.9   c-0.2,0.3-0.1,0.7,0,1c0.2,0.3,0.5,0.5,0.9,0.5h4.4c0.3,0,0.6,0.1,0.8,0.4c0.2,0.2,0.3,0.6,0.2,0.9l-1,4c-0.1,0.4-0.5,0.8-1,0.8H8   V12.5z M4,13c0-0.6,0.4-1,1-1h1v0.2V18H5c-0.6,0-1-0.4-1-1V13z"/></g></svg>