<?xml version="1.0" ?><svg width="24px" height="24px" viewBox="0 0 24 24" style="enable-background:new 0 0 24 24;" version="1.1" xml:space="preserve" xmlns="http://www.w3.org/2000/svg" xmlns:xlink="http://www.w3.org/1999/xlink"><style type="text/css">
	.st0{display:none;}
	.st1{display:inline;}
	.st2{opacity:0.2;fill:none;stroke:#000000;stroke-width:5.000000e-02;stroke-miterlimit:10;}
</style><g class="st0" id="grid_system"/><g id="_icons"><path d="M18,5H6C5.1,5,4.1,5.3,3.4,5.9c0,0,0,0,0,0c0,0,0,0,0,0c0,0,0,0,0,0C2.5,6.7,2,7.8,2,9v6c0,2.2,1.8,4,4,4h12   c2.2,0,4-1.8,4-4V9c0-1.2-0.5-2.3-1.4-3.1C19.9,5.3,18.9,5,18,5z M18,7L13,10.9c-0.6,0.5-1.5,0.5-2.1,0L6,7H18z M20,15   c0,1.1-0.9,2-2,2H6c-1.1,0-2-0.9-2-2V9c0-0.3,0.1-0.6,0.2-0.9l5.5,4.4c0.7,0.5,1.5,0.8,2.3,0.8s1.6-0.3,2.3-0.8l5.5-4.4   C19.9,8.4,20,8.7,20,9V15z"/></g></svg>