<?xml version="1.0" ?><svg width="24px" height="24px" viewBox="0 0 24 24" style="enable-background:new 0 0 24 24;" version="1.1" xml:space="preserve" xmlns="http://www.w3.org/2000/svg" xmlns:xlink="http://www.w3.org/1999/xlink"><style type="text/css">
	.st0{display:none;}
	.st1{display:inline;}
	.st2{opacity:0.2;fill:none;stroke:#000000;stroke-width:5.000000e-02;stroke-miterlimit:10;}
</style><g class="st0" id="grid_system"/><g id="_icons"><g><path d="M14.4,9.6c0.4,0.4,0.6,0.8,0.6,1.2c0,0.5,0.5,1,1,1c0,0,0,0,0,0c0.6,0,1-0.5,1-1c0-0.9-0.4-1.9-1.2-2.6    C15.1,7.5,14.1,7,13.2,7c0,0,0,0,0,0c-0.5,0-1,0.4-1,1c0,0.6,0.4,1,1,1C13.6,9,14.1,9.2,14.4,9.6z"/><path d="M18.1,5.9c-1.9-1.9-4.6-2.5-6.7-1.6c-0.5,0.2-0.8,0.8-0.5,1.3c0.2,0.5,0.8,0.7,1.3,0.5c1.4-0.6,3.3-0.1,4.6,1.2    c1.3,1.3,1.8,3.1,1.2,4.6c-0.2,0.5,0,1.1,0.5,1.3c0.1,0.1,0.3,0.1,0.4,0.1c0.4,0,0.8-0.2,0.9-0.6C20.7,10.5,20,7.8,18.1,5.9z"/><path d="M15.9,14.3c-0.9-0.9-2.4-0.9-3.4,0c-0.2,0.2-0.6,0.2-0.9,0l-1.9-1.9c-0.2-0.2-0.2-0.6,0-0.9c0.9-0.9,0.9-2.4,0-3.4    L7.4,5.8C6.5,4.9,5,4.9,4.1,5.8C3,6.8,2.4,8.3,2.4,9.8c0,1.5,0.6,2.9,1.6,4l6.2,6.2c1.1,1.1,2.5,1.6,4,1.6c1.5,0,2.9-0.6,4-1.6    c0.4-0.4,0.7-1,0.7-1.7c0-0.6-0.2-1.2-0.7-1.7L15.9,14.3z M16.8,18.5c-1.4,1.4-3.8,1.4-5.1,0l-6.2-6.2c-0.7-0.7-1.1-1.6-1.1-2.6    c0-1,0.4-1.9,1.1-2.6c0.1-0.1,0.2-0.1,0.3-0.1c0.1,0,0.2,0,0.3,0.1l2.3,2.3c0.1,0.1,0.1,0.2,0.1,0.3c0,0.1,0,0.2-0.1,0.3    c-1,1-1,2.7,0,3.7l1.9,1.9c1,1,2.7,1,3.7,0c0.2-0.2,0.3-0.2,0.5,0l2.3,2.3C17,18.1,17,18.4,16.8,18.5z"/></g></g></svg>